<svg width="603" height="504" viewBox="0 0 603 504" fill="none" xmlns="http://www.w3.org/2000/svg">
<path d="M174.25 297.706C174.25 297.706 93.0894 38.0463 46.8677 1.70922C0.645985 -34.6279 -16.4596 520.649 18.8435 503.616C54.1466 486.583 69.0687 170.904 69.0687 170.904C69.0687 170.904 165.151 484.69 190.992 424.885C216.832 365.081 237.214 222.76 237.214 222.76C237.214 222.76 344.215 424.885 355.497 386.277C366.78 347.669 388.981 207.241 388.981 207.241C388.981 207.241 464.682 363.188 473.781 334.421C482.88 305.654 490.523 222.76 490.523 222.76C490.523 222.76 488.703 220.868 575.687 251.527C662.672 282.186 516.364 161.063 490.523 142.137C464.682 123.212 449.76 251.527 449.76 251.527C449.76 251.527 399.9 142.137 375.879 99.7438C351.858 57.3505 335.116 297.706 335.116 297.706C335.116 297.706 239.033 80.4397 224.111 55.4579C209.189 30.4761 174.25 297.706 174.25 297.706Z" fill="#D9D9D9"/>
</svg>
